<svg xmlns="http://www.w3.org/2000/svg" viewBox="0 0 1000 760" role="img" aria-labelledby="title desc">
  <title id="title">Pastry plate and espresso</title>
  <desc id="desc">An Italian cafe style vector scene with pastry and espresso cup.</desc>
  <defs>
    <linearGradient id="bg2" x1="0" x2="1" y1="0" y2="1">
      <stop offset="0%" stop-color="#2f1d15"/>
      <stop offset="100%" stop-color="#180f0b"/>
    </linearGradient>
  </defs>
  <rect width="1000" height="760" rx="32" fill="url(#bg2)"/>
  <ellipse cx="510" cy="600" rx="310" ry="55" fill="#0f0a07" opacity="0.45"/>
  <ellipse cx="350" cy="560" rx="250" ry="80" fill="#f2dcc8"/>
  <ellipse cx="350" cy="560" rx="210" ry="56" fill="#f6e8da"/>
  <path d="M190 545c52-92 212-92 264 0" stroke="#d88935" stroke-width="24" stroke-linecap="round" fill="none"/>
  <circle cx="325" cy="535" r="28" fill="#c06c2c"/>
  <circle cx="270" cy="565" r="23" fill="#c06c2c"/>
  <circle cx="390" cy="570" r="22" fill="#c06c2c"/>
  <g transform="translate(560 310)">
    <rect x="0" y="70" width="230" height="145" rx="20" fill="#f5dfcb"/>
    <rect x="-15" y="46" width="260" height="42" rx="20" fill="#f8e7d6"/>
    <ellipse cx="115" cy="72" rx="105" ry="16" fill="#69402a"/>
    <path d="M230 95c40 0 72 28 72 65s-32 65-72 65h-18v-32h18c20 0 37-15 37-33s-17-33-37-33h-18V95h18z" fill="#f5dfcb"/>
    <path d="M85 14c-20-22-11-45 2-66" stroke="#f6e3d2" stroke-width="10" stroke-linecap="round" fill="none" opacity="0.85"/>
    <path d="M142 8c-17-24-9-52 4-74" stroke="#f6e3d2" stroke-width="10" stroke-linecap="round" fill="none" opacity="0.85"/>
  </g>
</svg>
